{
  "accessors": [
    {
      "bufferView": 2,
      "componentType": 5126,
      "count": 12961,
      "max": [
        9.828474044799805,
        24.997047424316406,
        4.8532514572143555
      ],
      "min": [
        -9.640446662902832,
        0.002954155206680298,
        -4.8532514572143555
      ],
      "type": "VEC3"
    },
    {
      "bufferView": 2,
      "byteOffset": 155532,
      "componentType": 5126,
      "count": 12961,
      "max": [
        0.9999995231628418,
        1.0,
        0.9999995827674866
      ],
      "min": [
        -0.9999995827674866,
        -1.0,
        -0.9999995231628418
      ],
      "type": "VEC3"
    },
    {
      "bufferView": 1,
      "componentType": 5126,
      "count": 12961,
      "max": [
        0.9793923497200012,
        0.9900000095367432
      ],
      "min": [
        0.0035273367539048195,
        0.003647587029263377
      ],
      "type": "VEC2"
    },
    {
      "bufferView": 0,
      "componentType": 5125,
      "count": 71184,
      "type": "SCALAR"
    }
  ],
  "asset": {
    "extras": {
      "author": "gelmi.com.br (https://sketchfab.com/rodrigogelmi)",
      "license": "CC-BY-4.0 (http://creativecommons.org/licenses/by/4.0/)",
      "source": "https://sketchfab.com/3d-models/can-702992eb3ce94e50a5d7fcbb9b9763a9",
      "title": "CAN"
    },
    "generator": "Sketchfab-12.66.0",
    "version": "2.0"
  },
  "bufferViews": [
    {
      "buffer": 0,
      "byteLength": 284736,
      "name": "floatBufferViews",
      "target": 34963
    },
    {
      "buffer": 0,
      "byteLength": 103688,
      "byteOffset": 284736,
      "byteStride": 8,
      "name": "floatBufferViews",
      "target": 34962
    },
    {
      "buffer": 0,
      "byteLength": 311064,
      "byteOffset": 388424,
      "byteStride": 12,
      "name": "floatBufferViews",
      "target": 34962
    }
  ],
  "buffers": [
    {
      "byteLength": 699488,
      "uri": "scene.bin"
    }
  ],
  "materials": [
    {
      "doubleSided": true,
      "name": "Default",
      "pbrMetallicRoughness": {
        "baseColorFactor": [
          0.6,
          0.6,
          0.6,
          1.0
        ],
        "roughnessFactor": 0.2631574947
      }
    }
  ],
  "meshes": [
    {
      "name": "Mesh_Default_0",
      "primitives": [
        {
          "attributes": {
            "NORMAL": 1,
            "POSITION": 0,
            "TEXCOORD_0": 2
          },
          "indices": 3,
          "material": 0,
          "mode": 4
        }
      ]
    }
  ],
  "nodes": [
    {
      "children": [
        1
      ],
      "matrix": [
        1.0,
        0.0,
        0.0,
        0.0,
        0.0,
        2.220446049250313e-16,
        -1.0,
        0.0,
        0.0,
        1.0,
        2.220446049250313e-16,
        0.0,
        0.0,
        0.0,
        0.0,
        1.0
      ],
      "name": "Sketchfab_model"
    },
    {
      "children": [
        2
      ],
      "matrix": [
        1.0,
        0.0,
        0.0,
        0.0,
        0.0,
        0.0,
        1.0,
        0.0,
        0.0,
        -1.0,
        0.0,
        0.0,
        0.0,
        0.0,
        0.0,
        1.0
      ],
      "name": "f206d4d6ab894b69ab681d61e2e65512.fbx"
    },
    {
      "children": [
        3,
        5,
        7
      ],
      "name": "RootNode"
    },
    {
      "children": [
        4
      ],
      "name": "Mesh"
    },
    {
      "mesh": 0,
      "name": "Mesh_Default_0"
    },
    {
      "children": [
        6
      ],
      "matrix": [
        0.0,
        -0.08715574274765814,
        -0.9961946980917455,
        0.0,
        0.0,
        0.9961946980917455,
        -0.08715574274765814,
        0.0,
        1.0,
        0.0,
        0.0,
        0.0,
        0.0,
        75.0,
        400.0,
        1.0
      ],
      "name": "Camera"
    },
    {
      "name": "Object_6"
    },
    {
      "children": [
        8
      ],
      "matrix": [
        0.7071067811865475,
        0.0,
        0.7071067811865476,
        0.0,
        -0.6123724356957945,
        0.5000000000000001,
        0.6123724356957945,
        0.0,
        -0.35355339059327384,
        -0.8660254037844386,
        0.35355339059327384,
        0.0,
        -200.0,
        200.0,
        200.0,
        1.0
      ],
      "name": "Directional Light"
    },
    {
      "children": [
        9
      ],
      "matrix": [
        1.0,
        0.0,
        0.0,
        0.0,
        0.0,
        2.220446049250313e-16,
        1.0,
        0.0,
        0.0,
        -1.0,
        2.220446049250313e-16,
        0.0,
        0.0,
        0.0,
        0.0,
        1.0
      ],
      "name": "Object_8"
    },
    {
      "name": "Object_9"
    }
  ],
  "scene": 0,
  "scenes": [
    {
      "name": "Sketchfab_Scene",
      "nodes": [
        0
      ]
    }
  ]
}
